{"title":"Immortals (2011) 1080p BluRay {Dual Audio} {6Ch.} [Hindi DD 5.1 ","uid":9377830,"size":2397769937,"categoryP":"video","categoryS":"hd___movies","magnet":"?xt=urn:btih:710063ad5d4d38cb73c5d16925506844dc3ada4b&amp;dn=Immortals+%282011%29+1080p+BluRay+%7BDual+Audio%7D+%7B6Ch.%7D+%5BHindi+DD+5.1+&amp;tr=udp%3A%2F%2Ftracker.openbittorrent.com%3A80&amp;tr=udp%3A%2F%2Fopen.demonii.com%3A1337&amp;tr=udp%3A%2F%2Ftracker.coppersurfer.tk%3A6969&amp;tr=udp%3A%2F%2Fexodus.desync.com%3A6969","seeders":1,"leechers":3,"uploader":"SaNRiM","files":-1,"time":1387651713,"description":"Storyline\n\nEons after the Gods won their mythic struggle against the Titans, a new evil threatens the land. Mad with power, King Hyperion (Mickey Rourke) has declared war against humanity. Amassing a bloodthirsty army of soldiers disfigured by his own hand, Hyperion has scorched Greece in search of the legendary Epirus Bow, a weapon of unimaginable power forged in the heavens by Ares. Only he who possesses this bow can unleash the Titans, who have been imprisoned deep within the walls of Mount Tartaros since the dawn of time and thirst for revenge. In the king's hands, the bow would rain destruction upon mankind and annihilate the Gods. But ancient law dictates the Gods must not intervene in man's conflict. They remain powerless to stop Hyperion...until a peasant named Theseus (Henry Cavill) comes forth as their only hope. Secretly chosen by Zeus, Theseus must save his people from Hyperion and his hordes. Rallying a band of fellow outsiders-including visionary priestess Phaedra\n\n\n\nTorrent Info\n\nGeneral\n\nUnique ID : 239554977517908512046364589552509117155 (0xB4389C46A3BE560F92A5FCB35617E2E3)\nComplete name : Immortals (2011) 1080p BluRay {Dual Audio} {6Ch.} [Hindi DD 5.1 Original-English DD 5.1] ~SaNRiM~.mkv\nFormat : Matroska\nFormat version : Version 4 / Version 2\nFile size : 2.22 GiB\nDuration : 1h 50mn\nOverall bit rate mode : Variable\nOverall bit rate : 2 873 Kbps\nEncoded date : UTC 2013-12-19 06:47:31\nWriting library : libebml v1.3.0 + libmatroska v1.4.1\n\n\nVideo\n\nID : 1\nFormat : AVC\nFormat/Info : Advanced Video Codec\nFormat profile : &lt;a class=&quot;__cf_email__&quot; href=&quot;/cdn-cgi/l/email-protection&quot; data-cfemail=&quot;6a22030d022a265e445a&quot;&gt;[email&amp;#160;protected]&lt;/a&gt;&lt;script cf-hash='f9e31' type=&quot;text/javascript&quot;&gt;\n/* &lt;![CDATA[ */!function(){try{var t=&quot;currentScript&quot;in document?document.currentScript:function(){for(var t=document.getElementsByTagName(&quot;script&quot;),e=t.length;e--;)if(t[e].getAttribute(&quot;cf-hash&quot;))return t[e]}();if(t&amp;&amp;t.previousSibling){var e,r,n,i,c=t.previousSibling,a=c.getAttribute(&quot;data-cfemail&quot;);if(a){for(e=&quot;&quot;,r=parseInt(a.substr(0,2),16),n=2;a.length-n;n+=2)i=parseInt(a.substr(n,2),16)^r,e+=String.fromCharCode(i);e=document.createTextNode(e),c.parentNode.replaceChild(e,c)}}}catch(u){}}();/* ]]&gt; */&lt;/script&gt;\nFormat settings, CABAC : Yes\nFormat settings, ReFrames : 4 frames\nCodec ID : V_MPEG4/ISO/AVC\nDuration : 1h 50mn\nBit rate mode : Variable\nBit rate : 1 976 Kbps\nMaximum bit rate : 25.0 Mbps\nWidth : 1 920 pixels\nHeight : 1 036 pixels\nDisplay aspect ratio : 1.85:1\nFrame rate mode : Constant\nFrame rate : 23.976 fps\nColor space : YUV\nChroma subsampling : 4:2:0\nBit depth : 8 bits\nScan type : Progressive\nBits/(Pixel*Frame) : 0.041\nStream size : 1.48 GiB (67%)\nTitle : ~SaNRiM~\nWriting library : x264 core 120 r2120 0c7dab9\nLanguage : English\nDefault : Yes\nForced : No\n\n\nAudio #1\n\nID : 2\nFormat : AC-3\nFormat/Info : Audio Coding 3\nMode extension : CM (complete main)\nFormat settings, Endianness : Big\nCodec ID : A_AC3\nDuration : 1h 50mn\nBit rate mode : Constant\nBit rate : 448 Kbps\nChannel(s) : 6 channels\nChannel positions : Front: L C R, Side: L R, LFE\nSampling rate : 48.0 KHz\nBit depth : 16 bits\nCompression mode : Lossy\nDelay relative to video : 374ms\nStream size : 354 MiB (16%)\nTitle : ~SaNRiM~\nLanguage : Hindi\nDefault : Yes\nForced : No\n\n\nAudio #2\nID : 3\nFormat : AC-3\nFormat/Info : Audio Coding 3\nMode extension : CM (complete main)\nFormat settings, Endianness : Big\nCodec ID : A_AC3\nDuration : 1h 50mn\nBit rate mode : Constant\nBit rate : 448 Kbps\nChannel(s) : 6 channels\nChannel positions : Front: L C R, Side: L R, LFE\nSampling rate : 48.0 KHz\nBit depth : 16 bits\nCompression mode : Lossy\nStream size : 354 MiB (16%)\nTitle : ~SaNRiM~\nLanguage : English\nDefault : No\nForced : No\n\n\n\nScreens &lt;a href=&quot;\nhttp://someimage.com/V6v3s3j&quot; rel=&quot;nofollow&quot; target=&quot;_NEW&quot;&gt;\nhttp://someimage.com/V6v3s3j&lt;/a&gt; &lt;a href=&quot;\nhttp://someimage.com/DJzbsBd&quot; rel=&quot;nofollow&quot; target=&quot;_NEW&quot;&gt;\nhttp://someimage.com/DJzbsBd&lt;/a&gt; &lt;a href=&quot;\nhttp://someimage.com/5JKCt07&quot; rel=&quot;nofollow&quot; target=&quot;_NEW&quot;&gt;\nhttp://someimage.com/5JKCt07&lt;/a&gt; &lt;a href=&quot;\nhttp://someimage.com/9NeRpZc&quot; rel=&quot;nofollow&quot; target=&quot;_NEW&quot;&gt;\nhttp://someimage.com/9NeRpZc&lt;/a&gt; &lt;a href=&quot;\nhttp://someimage.com/msm7pI1&quot; rel=&quot;nofollow&quot; target=&quot;_NEW&quot;&gt;\nhttp://someimage.com/msm7pI1&lt;/a&gt; &lt;a href=&quot;\nhttp://someimage.com/HBabbzd&quot; rel=&quot;nofollow&quot; target=&quot;_NEW&quot;&gt;\nhttp://someimage.com/HBabbzd&lt;/a&gt; &lt;a href=&quot;\nhttp://someimage.com/t0gpzRR&quot; rel=&quot;nofollow&quot; target=&quot;_NEW&quot;&gt;\nhttp://someimage.com/t0gpzRR&lt;/a&gt; &lt;a href=&quot;\nhttp://someimage.com/THPSlTA&quot; rel=&quot;nofollow&quot; target=&quot;_NEW&quot;&gt;\nhttp://someimage.com/THPSlTA&lt;/a&gt; &lt;a href=&quot;\nhttp://someimage.com/AJDN1QK&quot; rel=&quot;nofollow&quot; target=&quot;_NEW&quot;&gt;\nhttp://someimage.com/AJDN1QK&lt;/a&gt; &lt;a href=&quot;\nhttp://someimage.com/goBOQCP&quot; rel=&quot;nofollow&quot; target=&quot;_NEW&quot;&gt;\nhttp://someimage.com/goBOQCP&lt;/a&gt; &lt;a href=&quot;\nhttp://someimage.com/S1SbSZr&quot; rel=&quot;nofollow&quot; target=&quot;_NEW&quot;&gt;\nhttp://someimage.com/S1SbSZr&lt;/a&gt; &lt;a href=&quot;\nhttp://someimage.com/iH82fNL&quot; rel=&quot;nofollow&quot; target=&quot;_NEW&quot;&gt;\nhttp://someimage.com/iH82fNL&lt;/a&gt; &lt;a href=&quot;\nhttp://someimage.com/qwbR6Fu&quot; rel=&quot;nofollow&quot; target=&quot;_NEW&quot;&gt;\nhttp://someimage.com/qwbR6Fu&lt;/a&gt; &lt;a href=&quot;\nhttp://someimage.com/Xl53AwI&quot; rel=&quot;nofollow&quot; target=&quot;_NEW&quot;&gt;\nhttp://someimage.com/Xl53AwI&lt;/a&gt; &lt;a href=&quot;\nhttp://someimage.com/hZnZQ61&quot; rel=&quot;nofollow&quot; target=&quot;_NEW&quot;&gt;\nhttp://someimage.com/hZnZQ61&lt;/a&gt; &lt;a href=&quot;\nhttp://someimage.com/zWiHthz&quot; rel=&quot;nofollow&quot; target=&quot;_NEW&quot;&gt;\nhttp://someimage.com/zWiHthz&lt;/a&gt; &lt;a href=&quot;\nhttp://someimage.com/zUbPhcx&quot; rel=&quot;nofollow&quot; target=&quot;_NEW&quot;&gt;\nhttp://someimage.com/zUbPhcx&lt;/a&gt; &lt;a href=&quot;\nhttp://someimage.com/dIR1UMV&quot; rel=&quot;nofollow&quot; target=&quot;_NEW&quot;&gt;\nhttp://someimage.com/dIR1UMV&lt;/a&gt; &lt;a href=&quot;\nhttp://someimage.com/l9tsYHi&quot; rel=&quot;nofollow&quot; target=&quot;_NEW&quot;&gt;\nhttp://someimage.com/l9tsYHi&lt;/a&gt; &lt;a href=&quot;\nhttp://someimage.com/FEa4qiC&quot; rel=&quot;nofollow&quot; target=&quot;_NEW&quot;&gt;\nhttp://someimage.com/FEa4qiC&lt;/a&gt;\n\n\n\n                    If you like my work please comment\n                          Any request? Just PM me\n                       Please seed long after download\n                         Thank you &amp; enjoy the best\n                                 ~SaNRiM~ \t","torrent":{"xt":"urn:btih:710063ad5d4d38cb73c5d16925506844dc3ada4b","amp;dn":"Immortals+%282011%29+1080p+BluRay+%7BDual+Audio%7D+%7B6Ch.%7D+%5BHindi+DD+5.1+","amp;tr":["udp%3A%2F%2Ftracker.openbittorrent.com%3A80","udp%3A%2F%2Fopen.demonii.com%3A1337","udp%3A%2F%2Ftracker.coppersurfer.tk%3A6969","udp%3A%2F%2Fexodus.desync.com%3A6969"],"infoHash":"710063ad5d4d38cb73c5d16925506844dc3ada4b","infoHashBuffer":{"type":"Buffer","data":[113,0,99,173,93,77,56,203,115,197,209,105,37,80,104,68,220,58,218,75]},"announce":[],"urlList":[]}}